<svg width="423" height="139" viewBox="0 0 423 139" fill="none" xmlns="http://www.w3.org/2000/svg">
<mask id="mask0_25_241" style="mask-type:luminance" maskUnits="userSpaceOnUse" x="119" y="4" width="69" height="41">
<path d="M119 4H187.073V44.5104H119V4Z" fill="white"/>
</mask>
<g mask="url(#mask0_25_241)">
<path d="M119 4H187.047V44.5104H119V4Z" fill="#01437A"/>
</g>
<mask id="mask1_25_241" style="mask-type:luminance" maskUnits="userSpaceOnUse" x="118" y="93" width="69" height="42">
<path d="M118.911 93.7136H186.984V134.755H118.911V93.7136Z" fill="white"/>
</mask>
<g mask="url(#mask1_25_241)">
<path d="M118.911 93.7136H187.052V134.755H118.911V93.7136Z" fill="#01437A"/>
</g>
<mask id="mask2_25_241" style="mask-type:luminance" maskUnits="userSpaceOnUse" x="106" y="49" width="61" height="40">
<path d="M106 49H167V89H106V49Z" fill="white"/>
</mask>
<g mask="url(#mask2_25_241)">
<path d="M106 49H166.964V89H106V49Z" fill="#ED1C24"/>
</g>
<mask id="mask3_25_241" style="mask-type:luminance" maskUnits="userSpaceOnUse" x="326" y="0" width="97" height="87">
<path d="M326.333 0H422.333V86.6667H326.333V0Z" fill="white"/>
</mask>
<g mask="url(#mask3_25_241)">
<mask id="mask4_25_241" style="mask-type:luminance" maskUnits="userSpaceOnUse" x="307" y="-20" width="116" height="108">
<path d="M307.177 39.5155L387.849 -19.573L422.713 28.026L342.036 87.1145L307.177 39.5155Z" fill="white"/>
</mask>
<g mask="url(#mask4_25_241)">
<mask id="mask5_25_241" style="mask-type:luminance" maskUnits="userSpaceOnUse" x="307" y="-20" width="116" height="108">
<path d="M307.177 39.5155L387.849 -19.573L422.713 28.026L342.036 87.1145L307.177 39.5155Z" fill="white"/>
</mask>
<g mask="url(#mask5_25_241)">
<path d="M416.693 20.6561L421.281 26.9217C421.416 27.104 421.51 27.3019 421.562 27.5259C421.62 27.7446 421.63 27.9634 421.594 28.1873C421.557 28.4113 421.484 28.6196 421.364 28.8123C421.245 29.0103 421.099 29.1717 420.911 29.3019L343.422 86.0623C343.239 86.1978 343.036 86.2915 342.818 86.3436C342.599 86.4009 342.375 86.4061 342.151 86.3748C341.927 86.3384 341.719 86.2655 341.526 86.1457C341.333 86.0259 341.172 85.8748 341.036 85.6925L336.448 79.4269C335.484 78.1144 334.588 76.755 333.76 75.354C332.932 73.953 332.172 72.5103 331.484 71.0363C330.797 69.5571 330.182 68.0519 329.646 66.5155C329.104 64.979 328.64 63.4165 328.255 61.8332C327.87 60.255 327.562 58.6561 327.333 57.0415C327.104 55.4321 326.953 53.8123 326.885 52.1821C326.812 50.5571 326.823 48.9269 326.911 47.3019C327 45.6769 327.172 44.0571 327.422 42.4478C327.666 40.8384 327.995 39.2446 328.401 37.6665C328.807 36.0884 329.286 34.5363 329.844 33.005C330.401 31.4738 331.036 29.979 331.739 28.5103C332.443 27.0415 333.219 25.6092 334.068 24.2186C334.911 22.828 335.823 21.479 336.802 20.1769C337.781 18.8748 338.818 17.6248 339.922 16.4217C341.021 15.2238 342.177 14.078 343.39 12.9894C344.604 11.9061 345.87 10.88 347.182 9.9165C348.495 8.95817 349.854 8.06234 351.255 7.229C352.661 6.40088 354.099 5.64567 355.573 4.95817C357.052 4.27067 358.557 3.65609 360.094 3.11442C361.63 2.57796 363.193 2.11442 364.776 1.729C366.354 1.33838 367.953 1.03109 369.568 0.80192C371.177 0.572755 372.797 0.421711 374.427 0.354003C376.052 0.281087 377.682 0.291504 379.307 0.385253C380.932 0.473796 382.552 0.640462 384.161 0.890462C385.771 1.14046 387.364 1.46338 388.943 1.86963C390.521 2.27588 392.073 2.76025 393.604 3.31755C395.135 3.87484 396.635 4.50504 398.104 5.20817C399.568 5.9165 401 6.69254 402.39 7.5363C403.786 8.38004 405.13 9.29671 406.432 10.2707C407.734 11.2498 408.989 12.2915 410.187 13.3905C411.39 14.4946 412.531 15.6509 413.62 16.8644C414.703 18.078 415.729 19.3384 416.693 20.6561Z" fill="#01437A"/>
</g>
</g>
</g>
<mask id="mask6_25_241" style="mask-type:luminance" maskUnits="userSpaceOnUse" x="323" y="50" width="97" height="89">
<path d="M323.667 50.6667H419.667V138.667H323.667V50.6667Z" fill="white"/>
</mask>
<g mask="url(#mask6_25_241)">
<mask id="mask7_25_241" style="mask-type:luminance" maskUnits="userSpaceOnUse" x="322" y="50" width="117" height="109">
<path d="M438.303 97.8595L358.704 158.396L322.99 111.432L402.584 50.9011L438.303 97.8595Z" fill="white"/>
</mask>
<g mask="url(#mask7_25_241)">
<mask id="mask8_25_241" style="mask-type:luminance" maskUnits="userSpaceOnUse" x="322" y="50" width="117" height="109">
<path d="M438.303 97.8595L358.704 158.396L322.99 111.432L402.584 50.9011L438.303 97.8595Z" fill="white"/>
</mask>
<g mask="url(#mask8_25_241)">
<path d="M329.141 118.693L324.438 112.511C324.303 112.334 324.204 112.13 324.146 111.912C324.089 111.693 324.073 111.474 324.105 111.25C324.136 111.026 324.209 110.813 324.323 110.62C324.438 110.422 324.584 110.261 324.766 110.12L401.219 51.9742C401.402 51.8387 401.599 51.7398 401.818 51.6825C402.037 51.6252 402.261 51.6096 402.485 51.6408C402.709 51.6721 402.917 51.745 403.115 51.8596C403.308 51.9742 403.474 52.12 403.61 52.3023L408.313 58.4846C409.297 59.7815 410.219 61.12 411.073 62.5106C411.928 63.896 412.714 65.3231 413.428 66.7867C414.141 68.2502 414.782 69.745 415.349 71.271C415.917 72.7971 416.407 74.3492 416.823 75.9221C417.235 77.5002 417.573 79.0887 417.829 80.6981C418.089 82.3075 418.266 83.9221 418.365 85.5523C418.469 87.1773 418.485 88.8023 418.428 90.4325C418.365 92.0575 418.224 93.6773 418.006 95.2919C417.787 96.9065 417.49 98.5054 417.11 100.089C416.735 101.677 416.282 103.24 415.751 104.776C415.224 106.318 414.615 107.828 413.938 109.307C413.261 110.792 412.511 112.235 411.688 113.641C410.87 115.047 409.985 116.412 409.027 117.729C408.073 119.052 407.058 120.323 405.98 121.542C404.896 122.761 403.761 123.927 402.568 125.031C401.376 126.141 400.131 127.188 398.834 128.172C397.537 129.162 396.193 130.078 394.808 130.932C393.422 131.787 391.995 132.573 390.532 133.287C389.068 134 387.573 134.641 386.047 135.209C384.521 135.776 382.969 136.266 381.391 136.682C379.818 137.099 378.224 137.432 376.62 137.693C375.011 137.948 373.391 138.13 371.766 138.229C370.141 138.328 368.516 138.349 366.886 138.287C365.261 138.229 363.636 138.089 362.027 137.87C360.412 137.646 358.813 137.349 357.224 136.974C355.641 136.599 354.079 136.146 352.537 135.615C351.001 135.084 349.49 134.479 348.006 133.802C346.527 133.12 345.084 132.37 343.678 131.552C342.271 130.729 340.907 129.844 339.584 128.891C338.266 127.932 336.995 126.917 335.777 125.839C334.558 124.761 333.391 123.625 332.282 122.427C331.178 121.235 330.131 119.99 329.141 118.693Z" fill="#01437A"/>
</g>
</g>
</g>
<mask id="mask9_25_241" style="mask-type:luminance" maskUnits="userSpaceOnUse" x="2" y="0" width="97" height="87">
<path d="M2.66602 0H98.666V86.6667H2.66602V0Z" fill="white"/>
</mask>
<g mask="url(#mask9_25_241)">
<mask id="mask10_25_241" style="mask-type:luminance" maskUnits="userSpaceOnUse" x="-17" y="-20" width="117" height="108">
<path d="M-16.4902 39.5155L64.1816 -19.573L99.0462 28.026L18.3691 87.1145L-16.4902 39.5155Z" fill="white"/>
</mask>
<g mask="url(#mask10_25_241)">
<mask id="mask11_25_241" style="mask-type:luminance" maskUnits="userSpaceOnUse" x="-17" y="-20" width="117" height="108">
<path d="M-16.4902 39.5155L64.1816 -19.573L99.0462 28.026L18.3691 87.1145L-16.4902 39.5155Z" fill="white"/>
</mask>
<g mask="url(#mask11_25_241)">
<path d="M93.0255 20.6561L97.6141 26.9217C97.7495 27.104 97.8432 27.3019 97.8953 27.5259C97.9526 27.7446 97.963 27.9634 97.9266 28.1873C97.8901 28.4113 97.8172 28.6196 97.6974 28.8123C97.5776 29.0103 97.4318 29.1717 97.2443 29.3019L19.7547 86.0623C19.5724 86.1978 19.3693 86.2915 19.1505 86.3436C18.9318 86.4009 18.7078 86.4061 18.4838 86.3748C18.2599 86.3384 18.0516 86.2655 17.8588 86.1457C17.6661 86.0259 17.5047 85.8748 17.3693 85.6925L12.7807 79.4269C11.8172 78.1144 10.9213 76.755 10.0932 75.354C9.26509 73.953 8.50468 72.5103 7.81718 71.0363C7.12968 69.5571 6.51509 68.0519 5.97864 66.5155C5.43697 64.979 4.97343 63.4165 4.58801 61.8332C4.20259 60.255 3.8953 58.6561 3.66614 57.0415C3.43697 55.4321 3.28593 53.8123 3.21822 52.1821C3.1453 50.5571 3.15572 48.9269 3.24426 47.3019C3.3328 45.6769 3.50468 44.0571 3.75468 42.4478C3.99947 40.8384 4.32759 39.2446 4.73384 37.6665C5.14009 36.0884 5.61926 34.5363 6.17655 33.005C6.73384 31.4738 7.36926 29.979 8.07239 28.5103C8.77551 27.0415 9.55155 25.6092 10.4005 24.2186C11.2443 22.828 12.1557 21.479 13.1349 20.1769C14.1141 18.8748 15.1505 17.6248 16.2547 16.4217C17.3536 15.2238 18.5099 14.078 19.7234 12.9894C20.937 11.9061 22.2026 10.88 23.5151 9.9165C24.8276 8.95817 26.187 8.06234 27.588 7.229C28.9943 6.40088 30.4318 5.64567 31.9057 4.95817C33.3849 4.27067 34.8901 3.65609 36.4266 3.11442C37.963 2.57796 39.5255 2.11442 41.1088 1.729C42.687 1.33838 44.2859 1.03109 45.9005 0.80192C47.5099 0.572755 49.1297 0.421711 50.7599 0.354003C52.3849 0.281087 54.0151 0.291504 55.6401 0.385253C57.2651 0.473796 58.8849 0.640462 60.4943 0.890462C62.1036 1.14046 63.6974 1.46338 65.2755 1.86963C66.8536 2.27588 68.4057 2.76025 69.937 3.31755C71.4682 3.87484 72.9682 4.50504 74.437 5.20817C75.9005 5.9165 77.3328 6.69254 78.7234 7.5363C80.1193 8.38004 81.463 9.29671 82.7651 10.2707C84.0672 11.2498 85.3224 12.2915 86.5203 13.3905C87.7234 14.4946 88.8641 15.6509 89.9526 16.8644C91.0359 18.078 92.062 19.3384 93.0255 20.6561Z" fill="#01437A"/>
</g>
</g>
</g>
<mask id="mask12_25_241" style="mask-type:luminance" maskUnits="userSpaceOnUse" x="0" y="50" width="96" height="89">
<path d="M0 50.6667H96V138.667H0V50.6667Z" fill="white"/>
</mask>
<g mask="url(#mask12_25_241)">
<mask id="mask13_25_241" style="mask-type:luminance" maskUnits="userSpaceOnUse" x="-1" y="50" width="116" height="109">
<path d="M114.636 97.8595L35.0368 158.396L-0.676758 111.432L78.917 50.9011L114.636 97.8595Z" fill="white"/>
</mask>
<g mask="url(#mask13_25_241)">
<mask id="mask14_25_241" style="mask-type:luminance" maskUnits="userSpaceOnUse" x="-1" y="50" width="116" height="109">
<path d="M114.636 97.8595L35.0368 158.396L-0.676758 111.432L78.917 50.9011L114.636 97.8595Z" fill="white"/>
</mask>
<g mask="url(#mask14_25_241)">
<path d="M5.47416 118.693L0.771032 112.511C0.635614 112.334 0.536657 112.13 0.479365 111.912C0.422073 111.693 0.406449 111.474 0.437698 111.25C0.468948 111.026 0.541864 110.813 0.656448 110.62C0.771031 110.422 0.916865 110.261 1.09916 110.12L77.5523 51.9742C77.7346 51.8387 77.9325 51.7398 78.1512 51.6825C78.37 51.6252 78.594 51.6096 78.8179 51.6408C79.0419 51.6721 79.2502 51.745 79.4481 51.8596C79.6408 51.9742 79.8075 52.12 79.9429 52.3023L84.646 58.4846C85.6304 59.7815 86.5523 61.12 87.4064 62.5106C88.2606 63.896 89.0471 65.3231 89.7606 66.7867C90.4742 68.2502 91.1148 69.745 91.6825 71.271C92.2502 72.7971 92.7398 74.3492 93.1564 75.9221C93.5679 77.5002 93.9064 79.0887 94.1617 80.6981C94.4221 82.3075 94.5992 83.9221 94.6981 85.5523C94.8023 87.1773 94.8179 88.8023 94.7606 90.4325C94.6981 92.0575 94.5575 93.6773 94.3387 95.2919C94.12 96.9065 93.8231 98.5054 93.4429 100.089C93.0679 101.677 92.6148 103.24 92.0835 104.776C91.5575 106.318 90.9481 107.828 90.271 109.307C89.5939 110.792 88.8439 112.235 88.021 113.641C87.2033 115.047 86.3179 116.412 85.3596 117.729C84.4065 119.052 83.3908 120.323 82.3127 121.542C81.2294 122.761 80.094 123.927 78.9012 125.031C77.7085 126.141 76.4637 127.188 75.1669 128.172C73.87 129.162 72.5262 130.078 71.1408 130.932C69.7554 131.787 68.3283 132.573 66.8648 133.287C65.4012 134 63.9065 134.641 62.3804 135.209C60.8544 135.776 59.3023 136.266 57.7242 136.682C56.1512 137.099 54.5575 137.432 52.9533 137.693C51.3439 137.948 49.7242 138.13 48.0992 138.229C46.4742 138.328 44.8492 138.349 43.2189 138.287C41.5939 138.229 39.9689 138.089 38.3596 137.87C36.745 137.646 35.146 137.349 33.5575 136.974C31.9742 136.599 30.4117 136.146 28.87 135.615C27.3335 135.084 25.8231 134.479 24.3387 133.802C22.8596 133.12 21.4169 132.37 20.0106 131.552C18.6044 130.729 17.2398 129.844 15.9169 128.891C14.5992 127.932 13.3283 126.917 12.1096 125.839C10.8908 124.761 9.72416 123.625 8.61478 122.427C7.51061 121.235 6.46374 119.99 5.47416 118.693Z" fill="#01437A"/>
</g>
</g>
</g>
<path fill-rule="evenodd" clip-rule="evenodd" d="M321.62 3.17188H191.651L230.641 133.141H239.106L257.206 43.6667L275.89 133.141H282.631L321.62 3.17188Z" fill="#ED1C24"/>
</svg>
